<mxfile host="app.diagrams.net" modified="2021-09-17T12:21:42.843Z" agent="5.0 (Macintosh; Intel Mac OS X 10_15_7) AppleWebKit/537.36 (KHTML, like Gecko) Chrome/93.0.4577.63 Safari/537.36" etag="_3ar10PLN7GA9aOzTN0E" version="15.2.9" type="github">
  <diagram id="kgpKYQtTHZ0yAKxKKP6v" name="Page-1">
    <mxGraphModel dx="3245" dy="2220" grid="1" gridSize="10" guides="1" tooltips="1" connect="1" arrows="1" fold="1" page="1" pageScale="1" pageWidth="850" pageHeight="1100" math="0" shadow="0">
      <root>
        <mxCell id="0" />
        <mxCell id="1" parent="0" />
        <mxCell id="3nuBFxr9cyL0pnOWT2aG-1" value="HotFixApplicationLike" style="shape=umlLifeline;perimeter=lifelinePerimeter;container=1;collapsible=0;recursiveResize=0;rounded=0;shadow=0;strokeWidth=1;" parent="1" vertex="1">
          <mxGeometry x="70" y="80" width="150" height="2300" as="geometry" />
        </mxCell>
        <mxCell id="3nuBFxr9cyL0pnOWT2aG-2" value="" style="points=[];perimeter=orthogonalPerimeter;rounded=0;shadow=0;strokeWidth=1;" parent="3nuBFxr9cyL0pnOWT2aG-1" vertex="1">
          <mxGeometry x="70" y="65" width="10" height="190" as="geometry" />
        </mxCell>
        <mxCell id="ZXUUVDFSicZSc3KfNEdH-19" value="" style="points=[];perimeter=orthogonalPerimeter;rounded=0;shadow=0;strokeWidth=1;" vertex="1" parent="3nuBFxr9cyL0pnOWT2aG-1">
          <mxGeometry x="70" y="540" width="10" height="930" as="geometry" />
        </mxCell>
        <mxCell id="ZXUUVDFSicZSc3KfNEdH-28" value="HotFixManager.fetchTinkerPatch" style="verticalAlign=bottom;endArrow=block;entryX=0;entryY=0;shadow=0;strokeWidth=1;" edge="1" parent="3nuBFxr9cyL0pnOWT2aG-1">
          <mxGeometry relative="1" as="geometry">
            <mxPoint x="80" y="550.0000000000001" as="sourcePoint" />
            <mxPoint x="275" y="550.0000000000001" as="targetPoint" />
          </mxGeometry>
        </mxCell>
        <mxCell id="3nuBFxr9cyL0pnOWT2aG-5" value="HotFixManager" style="shape=umlLifeline;perimeter=lifelinePerimeter;container=1;collapsible=0;recursiveResize=0;rounded=0;shadow=0;strokeWidth=1;" parent="1" vertex="1">
          <mxGeometry x="300" y="80" width="100" height="2770" as="geometry" />
        </mxCell>
        <mxCell id="3nuBFxr9cyL0pnOWT2aG-6" value="" style="points=[];perimeter=orthogonalPerimeter;rounded=0;shadow=0;strokeWidth=1;" parent="3nuBFxr9cyL0pnOWT2aG-5" vertex="1">
          <mxGeometry x="45" y="80" width="10" height="160" as="geometry" />
        </mxCell>
        <mxCell id="ZXUUVDFSicZSc3KfNEdH-21" value="" style="html=1;points=[];perimeter=orthogonalPerimeter;" vertex="1" parent="3nuBFxr9cyL0pnOWT2aG-5">
          <mxGeometry x="45" y="548" width="10" height="682" as="geometry" />
        </mxCell>
        <mxCell id="ZXUUVDFSicZSc3KfNEdH-31" value="PatchManager.getIntance().init()" style="html=1;verticalAlign=bottom;endArrow=block;entryX=-0.1;entryY=0;entryDx=0;entryDy=0;entryPerimeter=0;" edge="1" parent="3nuBFxr9cyL0pnOWT2aG-5" target="ZXUUVDFSicZSc3KfNEdH-32">
          <mxGeometry width="80" relative="1" as="geometry">
            <mxPoint x="55" y="560" as="sourcePoint" />
            <mxPoint x="1120" y="560" as="targetPoint" />
          </mxGeometry>
        </mxCell>
        <mxCell id="3nuBFxr9cyL0pnOWT2aG-8" value="HotFixManager.initTinker" style="verticalAlign=bottom;endArrow=block;entryX=0;entryY=0;shadow=0;strokeWidth=1;" parent="1" source="3nuBFxr9cyL0pnOWT2aG-2" target="3nuBFxr9cyL0pnOWT2aG-6" edge="1">
          <mxGeometry relative="1" as="geometry">
            <mxPoint x="275" y="160" as="sourcePoint" />
          </mxGeometry>
        </mxCell>
        <mxCell id="ZXUUVDFSicZSc3KfNEdH-3" value="TinkerManager" style="shape=umlLifeline;perimeter=lifelinePerimeter;container=1;collapsible=0;recursiveResize=0;rounded=0;shadow=0;strokeWidth=1;" vertex="1" parent="1">
          <mxGeometry x="491" y="80" width="100" height="2190" as="geometry" />
        </mxCell>
        <mxCell id="ZXUUVDFSicZSc3KfNEdH-4" value="" style="points=[];perimeter=orthogonalPerimeter;rounded=0;shadow=0;strokeWidth=1;" vertex="1" parent="ZXUUVDFSicZSc3KfNEdH-3">
          <mxGeometry x="45" y="90" width="10" height="160" as="geometry" />
        </mxCell>
        <mxCell id="ZXUUVDFSicZSc3KfNEdH-5" value="TinkerManager.installTinker" style="verticalAlign=bottom;endArrow=block;entryX=0;entryY=0;shadow=0;strokeWidth=1;exitX=0.9;exitY=0.063;exitDx=0;exitDy=0;exitPerimeter=0;" edge="1" parent="1" source="3nuBFxr9cyL0pnOWT2aG-6">
          <mxGeometry relative="1" as="geometry">
            <mxPoint x="380" y="170" as="sourcePoint" />
            <mxPoint x="535" y="170.0000000000001" as="targetPoint" />
          </mxGeometry>
        </mxCell>
        <mxCell id="ZXUUVDFSicZSc3KfNEdH-6" value="TinkerInstaller" style="shape=umlLifeline;perimeter=lifelinePerimeter;container=1;collapsible=0;recursiveResize=0;rounded=0;shadow=0;strokeWidth=1;" vertex="1" parent="1">
          <mxGeometry x="705" y="80" width="100" height="2400" as="geometry" />
        </mxCell>
        <mxCell id="ZXUUVDFSicZSc3KfNEdH-7" value="" style="points=[];perimeter=orthogonalPerimeter;rounded=0;shadow=0;strokeWidth=1;" vertex="1" parent="ZXUUVDFSicZSc3KfNEdH-6">
          <mxGeometry x="45" y="95" width="10" height="160" as="geometry" />
        </mxCell>
        <mxCell id="ZXUUVDFSicZSc3KfNEdH-8" value="TinkerInstaller.install" style="verticalAlign=bottom;endArrow=block;entryX=0;entryY=0;shadow=0;strokeWidth=1;" edge="1" parent="ZXUUVDFSicZSc3KfNEdH-6">
          <mxGeometry relative="1" as="geometry">
            <mxPoint x="-159" y="95" as="sourcePoint" />
            <mxPoint x="45" y="95.00000000000011" as="targetPoint" />
          </mxGeometry>
        </mxCell>
        <mxCell id="ZXUUVDFSicZSc3KfNEdH-40" value="" style="html=1;points=[];perimeter=orthogonalPerimeter;" vertex="1" parent="ZXUUVDFSicZSc3KfNEdH-6">
          <mxGeometry x="45" y="840" width="10" height="80" as="geometry" />
        </mxCell>
        <mxCell id="ZXUUVDFSicZSc3KfNEdH-9" value="Tinker" style="shape=umlLifeline;perimeter=lifelinePerimeter;container=1;collapsible=0;recursiveResize=0;rounded=0;shadow=0;strokeWidth=1;" vertex="1" parent="1">
          <mxGeometry x="920" y="80" width="100" height="2140" as="geometry" />
        </mxCell>
        <mxCell id="ZXUUVDFSicZSc3KfNEdH-10" value="" style="points=[];perimeter=orthogonalPerimeter;rounded=0;shadow=0;strokeWidth=1;" vertex="1" parent="ZXUUVDFSicZSc3KfNEdH-9">
          <mxGeometry x="45" y="110" width="10" height="160" as="geometry" />
        </mxCell>
        <mxCell id="ZXUUVDFSicZSc3KfNEdH-114" value="onLoadResult" style="html=1;verticalAlign=bottom;endArrow=block;entryX=0.171;entryY=0.001;entryDx=0;entryDy=0;entryPerimeter=0;" edge="1" parent="ZXUUVDFSicZSc3KfNEdH-9" target="ZXUUVDFSicZSc3KfNEdH-112">
          <mxGeometry width="80" relative="1" as="geometry">
            <mxPoint x="56" y="180" as="sourcePoint" />
            <mxPoint x="136" y="180" as="targetPoint" />
          </mxGeometry>
        </mxCell>
        <mxCell id="ZXUUVDFSicZSc3KfNEdH-11" value="Tinker.install" style="verticalAlign=bottom;endArrow=block;entryX=0;entryY=0;shadow=0;strokeWidth=1;" edge="1" parent="1">
          <mxGeometry relative="1" as="geometry">
            <mxPoint x="761" y="190" as="sourcePoint" />
            <mxPoint x="965" y="190.0000000000001" as="targetPoint" />
          </mxGeometry>
        </mxCell>
        <mxCell id="ZXUUVDFSicZSc3KfNEdH-17" value="TinkerPatchService.setPatchProcessor" style="verticalAlign=bottom;endArrow=block;shadow=0;strokeWidth=1;exitX=1.2;exitY=0.069;exitDx=0;exitDy=0;exitPerimeter=0;" edge="1" parent="1">
          <mxGeometry relative="1" as="geometry">
            <mxPoint x="974.5" y="201.03999999999996" as="sourcePoint" />
            <mxPoint x="2080" y="200" as="targetPoint" />
          </mxGeometry>
        </mxCell>
        <mxCell id="ZXUUVDFSicZSc3KfNEdH-29" value="PatchManager" style="shape=umlLifeline;perimeter=lifelinePerimeter;container=1;collapsible=0;recursiveResize=0;rounded=0;shadow=0;strokeWidth=1;" vertex="1" parent="1">
          <mxGeometry x="1240" y="80" width="162" height="1760" as="geometry" />
        </mxCell>
        <mxCell id="ZXUUVDFSicZSc3KfNEdH-32" value="" style="html=1;points=[];perimeter=orthogonalPerimeter;" vertex="1" parent="ZXUUVDFSicZSc3KfNEdH-29">
          <mxGeometry x="76" y="560" width="10" height="200" as="geometry" />
        </mxCell>
        <mxCell id="ZXUUVDFSicZSc3KfNEdH-35" value="PatchServer.init" style="html=1;verticalAlign=bottom;endArrow=block;entryX=-0.3;entryY=-0.005;entryDx=0;entryDy=0;entryPerimeter=0;" edge="1" parent="ZXUUVDFSicZSc3KfNEdH-29" target="ZXUUVDFSicZSc3KfNEdH-34">
          <mxGeometry width="80" relative="1" as="geometry">
            <mxPoint x="86" y="570" as="sourcePoint" />
            <mxPoint x="166" y="570" as="targetPoint" />
          </mxGeometry>
        </mxCell>
        <mxCell id="ZXUUVDFSicZSc3KfNEdH-68" value="" style="html=1;points=[];perimeter=orthogonalPerimeter;" vertex="1" parent="ZXUUVDFSicZSc3KfNEdH-29">
          <mxGeometry x="76" y="990" width="10" height="60" as="geometry" />
        </mxCell>
        <mxCell id="ZXUUVDFSicZSc3KfNEdH-70" value="" style="html=1;points=[];perimeter=orthogonalPerimeter;" vertex="1" parent="ZXUUVDFSicZSc3KfNEdH-29">
          <mxGeometry x="76" y="1090" width="10" height="150" as="geometry" />
        </mxCell>
        <mxCell id="ZXUUVDFSicZSc3KfNEdH-74" value="downLoadAndPatch" style="html=1;verticalAlign=bottom;endArrow=open;dashed=1;endSize=8;" edge="1" parent="ZXUUVDFSicZSc3KfNEdH-29" source="ZXUUVDFSicZSc3KfNEdH-72">
          <mxGeometry relative="1" as="geometry">
            <mxPoint x="166" y="1200" as="sourcePoint" />
            <mxPoint x="86" y="1200" as="targetPoint" />
          </mxGeometry>
        </mxCell>
        <mxCell id="ZXUUVDFSicZSc3KfNEdH-79" value="downloadPatch" style="html=1;verticalAlign=bottom;endArrow=block;entryX=0;entryY=0;" edge="1" target="ZXUUVDFSicZSc3KfNEdH-78" parent="ZXUUVDFSicZSc3KfNEdH-29">
          <mxGeometry relative="1" as="geometry">
            <mxPoint x="82" y="1240" as="sourcePoint" />
          </mxGeometry>
        </mxCell>
        <mxCell id="ZXUUVDFSicZSc3KfNEdH-80" value="onDownLoadSuccess" style="html=1;verticalAlign=bottom;endArrow=open;dashed=1;endSize=8;" edge="1" parent="ZXUUVDFSicZSc3KfNEdH-29">
          <mxGeometry relative="1" as="geometry">
            <mxPoint x="86" y="1316" as="targetPoint" />
            <mxPoint x="400" y="1316" as="sourcePoint" />
          </mxGeometry>
        </mxCell>
        <mxCell id="ZXUUVDFSicZSc3KfNEdH-82" value="" style="html=1;points=[];perimeter=orthogonalPerimeter;" vertex="1" parent="ZXUUVDFSicZSc3KfNEdH-29">
          <mxGeometry x="76" y="1300" width="10" height="80" as="geometry" />
        </mxCell>
        <mxCell id="ZXUUVDFSicZSc3KfNEdH-104" value="" style="html=1;points=[];perimeter=orthogonalPerimeter;" vertex="1" parent="ZXUUVDFSicZSc3KfNEdH-29">
          <mxGeometry x="76" y="1540" width="10" height="220" as="geometry" />
        </mxCell>
        <mxCell id="ZXUUVDFSicZSc3KfNEdH-108" value="report()合成失败的上报&lt;br&gt;和加载成功的上报" style="html=1;verticalAlign=bottom;endArrow=block;entryX=0.033;entryY=0;entryDx=0;entryDy=0;entryPerimeter=0;" edge="1" parent="ZXUUVDFSicZSc3KfNEdH-29" target="ZXUUVDFSicZSc3KfNEdH-107">
          <mxGeometry width="80" relative="1" as="geometry">
            <mxPoint x="86" y="1690" as="sourcePoint" />
            <mxPoint x="166" y="1690" as="targetPoint" />
          </mxGeometry>
        </mxCell>
        <mxCell id="ZXUUVDFSicZSc3KfNEdH-33" value="PatchServer" style="shape=umlLifeline;perimeter=lifelinePerimeter;container=1;collapsible=0;recursiveResize=0;rounded=0;shadow=0;strokeWidth=1;" vertex="1" parent="1">
          <mxGeometry x="1450" y="80" width="162" height="2630" as="geometry" />
        </mxCell>
        <mxCell id="ZXUUVDFSicZSc3KfNEdH-34" value="" style="html=1;points=[];perimeter=orthogonalPerimeter;" vertex="1" parent="ZXUUVDFSicZSc3KfNEdH-33">
          <mxGeometry x="76" y="570" width="10" height="200" as="geometry" />
        </mxCell>
        <mxCell id="ZXUUVDFSicZSc3KfNEdH-72" value="request" style="html=1;points=[];perimeter=orthogonalPerimeter;" vertex="1" parent="ZXUUVDFSicZSc3KfNEdH-33">
          <mxGeometry x="76" y="1120" width="10" height="80" as="geometry" />
        </mxCell>
        <mxCell id="ZXUUVDFSicZSc3KfNEdH-78" value="request" style="html=1;points=[];perimeter=orthogonalPerimeter;" vertex="1" parent="ZXUUVDFSicZSc3KfNEdH-33">
          <mxGeometry x="76" y="1240" width="10" height="80" as="geometry" />
        </mxCell>
        <mxCell id="ZXUUVDFSicZSc3KfNEdH-107" value="request" style="html=1;points=[];perimeter=orthogonalPerimeter;" vertex="1" parent="ZXUUVDFSicZSc3KfNEdH-33">
          <mxGeometry x="76" y="1690" width="10" height="80" as="geometry" />
        </mxCell>
        <mxCell id="ZXUUVDFSicZSc3KfNEdH-38" value="patch" style="html=1;verticalAlign=bottom;endArrow=open;dashed=1;endSize=8;exitX=0.2;exitY=1;exitDx=0;exitDy=0;exitPerimeter=0;entryX=0.5;entryY=0.311;entryDx=0;entryDy=0;entryPerimeter=0;" edge="1" source="ZXUUVDFSicZSc3KfNEdH-32" parent="1" target="ZXUUVDFSicZSc3KfNEdH-21">
          <mxGeometry relative="1" as="geometry">
            <mxPoint x="420" y="830" as="targetPoint" />
            <mxPoint x="970" y="840" as="sourcePoint" />
          </mxGeometry>
        </mxCell>
        <mxCell id="ZXUUVDFSicZSc3KfNEdH-41" value="DefaultPatchListener" style="shape=umlLifeline;perimeter=lifelinePerimeter;container=1;collapsible=0;recursiveResize=0;rounded=0;shadow=0;strokeWidth=1;" vertex="1" parent="1">
          <mxGeometry x="1740" y="80" width="162" height="2320" as="geometry" />
        </mxCell>
        <mxCell id="ZXUUVDFSicZSc3KfNEdH-42" value="" style="html=1;points=[];perimeter=orthogonalPerimeter;" vertex="1" parent="ZXUUVDFSicZSc3KfNEdH-41">
          <mxGeometry x="76" y="840" width="10" height="360" as="geometry" />
        </mxCell>
        <mxCell id="ZXUUVDFSicZSc3KfNEdH-50" value="" style="html=1;points=[];perimeter=orthogonalPerimeter;" vertex="1" parent="ZXUUVDFSicZSc3KfNEdH-41">
          <mxGeometry x="76" y="990" width="10" height="40" as="geometry" />
        </mxCell>
        <mxCell id="ZXUUVDFSicZSc3KfNEdH-51" value="runForgService" style="edgeStyle=orthogonalEdgeStyle;html=1;align=left;spacingLeft=2;endArrow=block;rounded=0;entryX=1;entryY=0;exitX=1;exitY=0.7;exitDx=0;exitDy=0;exitPerimeter=0;" edge="1" target="ZXUUVDFSicZSc3KfNEdH-50" parent="ZXUUVDFSicZSc3KfNEdH-41" source="ZXUUVDFSicZSc3KfNEdH-42">
          <mxGeometry relative="1" as="geometry">
            <mxPoint x="110" y="930" as="sourcePoint" />
            <Array as="points">
              <mxPoint x="86" y="890" />
              <mxPoint x="140" y="890" />
              <mxPoint x="140" y="990" />
            </Array>
          </mxGeometry>
        </mxCell>
        <mxCell id="ZXUUVDFSicZSc3KfNEdH-54" value="runPatchService" style="html=1;verticalAlign=bottom;endArrow=block;entryX=-0.1;entryY=0.811;entryDx=0;entryDy=0;entryPerimeter=0;" edge="1" parent="ZXUUVDFSicZSc3KfNEdH-41">
          <mxGeometry width="80" relative="1" as="geometry">
            <mxPoint x="86" y="1080" as="sourcePoint" />
            <mxPoint x="335.0000000000009" y="1078.9700000000003" as="targetPoint" />
          </mxGeometry>
        </mxCell>
        <mxCell id="ZXUUVDFSicZSc3KfNEdH-43" value="Tinker.with(context).getPatchListener().onPatchReceived(patchLocation)" style="html=1;verticalAlign=bottom;endArrow=block;entryX=0.1;entryY=0.028;entryDx=0;entryDy=0;entryPerimeter=0;" edge="1" parent="1" target="ZXUUVDFSicZSc3KfNEdH-42">
          <mxGeometry width="80" relative="1" as="geometry">
            <mxPoint x="754.5" y="931" as="sourcePoint" />
            <mxPoint x="1810" y="931" as="targetPoint" />
            <Array as="points" />
          </mxGeometry>
        </mxCell>
        <mxCell id="ZXUUVDFSicZSc3KfNEdH-44" value="TinkerPatchService" style="shape=umlLifeline;perimeter=lifelinePerimeter;container=1;collapsible=0;recursiveResize=0;rounded=0;shadow=0;strokeWidth=1;" vertex="1" parent="1">
          <mxGeometry x="2000" y="80" width="162" height="2310" as="geometry" />
        </mxCell>
        <mxCell id="ZXUUVDFSicZSc3KfNEdH-83" value="" style="html=1;points=[];perimeter=orthogonalPerimeter;" vertex="1" parent="ZXUUVDFSicZSc3KfNEdH-44">
          <mxGeometry x="76" y="120" width="10" height="80" as="geometry" />
        </mxCell>
        <mxCell id="ZXUUVDFSicZSc3KfNEdH-84" value="" style="html=1;points=[];perimeter=orthogonalPerimeter;" vertex="1" parent="ZXUUVDFSicZSc3KfNEdH-44">
          <mxGeometry x="76" y="1080" width="10" height="80" as="geometry" />
        </mxCell>
        <mxCell id="ZXUUVDFSicZSc3KfNEdH-92" value="" style="html=1;points=[];perimeter=orthogonalPerimeter;" vertex="1" parent="ZXUUVDFSicZSc3KfNEdH-44">
          <mxGeometry x="76" y="1250" width="10" height="40" as="geometry" />
        </mxCell>
        <mxCell id="ZXUUVDFSicZSc3KfNEdH-93" value="onHandleIntent" style="edgeStyle=orthogonalEdgeStyle;html=1;align=left;spacingLeft=2;endArrow=block;rounded=0;entryX=1;entryY=0;exitX=1.107;exitY=0.919;exitDx=0;exitDy=0;exitPerimeter=0;" edge="1" target="ZXUUVDFSicZSc3KfNEdH-92" parent="ZXUUVDFSicZSc3KfNEdH-44" source="ZXUUVDFSicZSc3KfNEdH-84">
          <mxGeometry relative="1" as="geometry">
            <mxPoint x="125" y="1230" as="sourcePoint" />
            <Array as="points">
              <mxPoint x="155" y="1154" />
              <mxPoint x="155" y="1250" />
            </Array>
          </mxGeometry>
        </mxCell>
        <mxCell id="ZXUUVDFSicZSc3KfNEdH-94" value="tryPatch开始合成" style="html=1;points=[];perimeter=orthogonalPerimeter;" vertex="1" parent="ZXUUVDFSicZSc3KfNEdH-44">
          <mxGeometry x="76" y="1350" width="10" height="70" as="geometry" />
        </mxCell>
        <mxCell id="ZXUUVDFSicZSc3KfNEdH-95" value="doApplyPatch" style="edgeStyle=orthogonalEdgeStyle;html=1;align=left;spacingLeft=2;endArrow=block;rounded=0;entryX=1;entryY=0;exitX=1.176;exitY=0.76;exitDx=0;exitDy=0;exitPerimeter=0;" edge="1" parent="ZXUUVDFSicZSc3KfNEdH-44">
          <mxGeometry relative="1" as="geometry">
            <mxPoint x="85.75999999999976" y="1280.4" as="sourcePoint" />
            <Array as="points">
              <mxPoint x="168" y="1280" />
              <mxPoint x="168" y="1350" />
            </Array>
            <mxPoint x="84" y="1350.0000000000002" as="targetPoint" />
          </mxGeometry>
        </mxCell>
        <mxCell id="ZXUUVDFSicZSc3KfNEdH-98" value="runResultService" style="html=1;verticalAlign=bottom;endArrow=block;entryX=0.072;entryY=0.018;entryDx=0;entryDy=0;entryPerimeter=0;" edge="1" parent="ZXUUVDFSicZSc3KfNEdH-44" target="ZXUUVDFSicZSc3KfNEdH-96">
          <mxGeometry width="80" relative="1" as="geometry">
            <mxPoint x="85" y="1410" as="sourcePoint" />
            <mxPoint x="165" y="1410" as="targetPoint" />
          </mxGeometry>
        </mxCell>
        <mxCell id="ZXUUVDFSicZSc3KfNEdH-55" value="TinkerInstaller.onReceiveUpgradePatch" style="html=1;verticalAlign=bottom;endArrow=block;exitX=0.9;exitY=0.427;exitDx=0;exitDy=0;exitPerimeter=0;" edge="1" parent="1" source="ZXUUVDFSicZSc3KfNEdH-21" target="ZXUUVDFSicZSc3KfNEdH-6">
          <mxGeometry x="-0.0712" y="9" width="80" relative="1" as="geometry">
            <mxPoint x="385" y="920" as="sourcePoint" />
            <mxPoint x="465" y="920" as="targetPoint" />
            <mxPoint as="offset" />
          </mxGeometry>
        </mxCell>
        <mxCell id="ZXUUVDFSicZSc3KfNEdH-69" value="PatchManager.getInstance().setTag()" style="html=1;verticalAlign=bottom;endArrow=block;entryX=0.486;entryY=0.563;entryDx=0;entryDy=0;entryPerimeter=0;exitX=0.867;exitY=0.648;exitDx=0;exitDy=0;exitPerimeter=0;" edge="1" parent="1" source="ZXUUVDFSicZSc3KfNEdH-21" target="ZXUUVDFSicZSc3KfNEdH-29">
          <mxGeometry width="80" relative="1" as="geometry">
            <mxPoint x="410" y="1070" as="sourcePoint" />
            <mxPoint x="490" y="1070" as="targetPoint" />
          </mxGeometry>
        </mxCell>
        <mxCell id="ZXUUVDFSicZSc3KfNEdH-71" value="PatchManager.getInstance().queryAndPatch()" style="html=1;verticalAlign=bottom;endArrow=block;exitX=1.533;exitY=0.792;exitDx=0;exitDy=0;exitPerimeter=0;entryX=0.506;entryY=0.617;entryDx=0;entryDy=0;entryPerimeter=0;" edge="1" parent="1" target="ZXUUVDFSicZSc3KfNEdH-29">
          <mxGeometry width="80" relative="1" as="geometry">
            <mxPoint x="355.3300000000004" y="1168.1439999999998" as="sourcePoint" />
            <mxPoint x="1310" y="1169" as="targetPoint" />
          </mxGeometry>
        </mxCell>
        <mxCell id="ZXUUVDFSicZSc3KfNEdH-73" value="queryPatch" style="html=1;verticalAlign=bottom;endArrow=block;exitX=0.527;exitY=0.636;exitDx=0;exitDy=0;exitPerimeter=0;entryX=0.1;entryY=0.021;entryDx=0;entryDy=0;entryPerimeter=0;" edge="1" parent="1" source="ZXUUVDFSicZSc3KfNEdH-29" target="ZXUUVDFSicZSc3KfNEdH-72">
          <mxGeometry width="80" relative="1" as="geometry">
            <mxPoint x="1510" y="1200" as="sourcePoint" />
            <mxPoint x="1520" y="1200" as="targetPoint" />
          </mxGeometry>
        </mxCell>
        <mxCell id="ZXUUVDFSicZSc3KfNEdH-85" value="TTTinkerResultService" style="shape=umlLifeline;perimeter=lifelinePerimeter;container=1;collapsible=0;recursiveResize=0;rounded=0;shadow=0;strokeWidth=1;" vertex="1" parent="1">
          <mxGeometry x="2240" y="80" width="162" height="2310" as="geometry" />
        </mxCell>
        <mxCell id="ZXUUVDFSicZSc3KfNEdH-96" value="" style="html=1;points=[];perimeter=orthogonalPerimeter;" vertex="1" parent="ZXUUVDFSicZSc3KfNEdH-85">
          <mxGeometry x="76" y="1408" width="10" height="80" as="geometry" />
        </mxCell>
        <mxCell id="ZXUUVDFSicZSc3KfNEdH-102" value="" style="html=1;points=[];perimeter=orthogonalPerimeter;" vertex="1" parent="ZXUUVDFSicZSc3KfNEdH-85">
          <mxGeometry x="76" y="1550" width="10" height="130" as="geometry" />
        </mxCell>
        <mxCell id="ZXUUVDFSicZSc3KfNEdH-103" value="onPatchResult" style="edgeStyle=orthogonalEdgeStyle;html=1;align=left;spacingLeft=2;endArrow=block;rounded=0;entryX=1;entryY=0;exitX=1;exitY=0.825;exitDx=0;exitDy=0;exitPerimeter=0;" edge="1" target="ZXUUVDFSicZSc3KfNEdH-102" parent="ZXUUVDFSicZSc3KfNEdH-85" source="ZXUUVDFSicZSc3KfNEdH-96">
          <mxGeometry relative="1" as="geometry">
            <mxPoint x="76" y="1530" as="sourcePoint" />
            <Array as="points">
              <mxPoint x="200" y="1474" />
              <mxPoint x="200" y="1550" />
            </Array>
          </mxGeometry>
        </mxCell>
        <mxCell id="ZXUUVDFSicZSc3KfNEdH-105" value="onPatchSuccess" style="html=1;verticalAlign=bottom;endArrow=open;dashed=1;endSize=8;entryX=1.2;entryY=0.092;entryDx=0;entryDy=0;entryPerimeter=0;" edge="1" parent="1" source="ZXUUVDFSicZSc3KfNEdH-102" target="ZXUUVDFSicZSc3KfNEdH-104">
          <mxGeometry relative="1" as="geometry">
            <mxPoint x="1296" y="1620" as="sourcePoint" />
            <mxPoint x="1216" y="1620" as="targetPoint" />
          </mxGeometry>
        </mxCell>
        <mxCell id="ZXUUVDFSicZSc3KfNEdH-106" value="onPatchFailure" style="html=1;verticalAlign=bottom;endArrow=open;dashed=1;endSize=8;" edge="1" parent="1">
          <mxGeometry relative="1" as="geometry">
            <mxPoint x="2315" y="1680" as="sourcePoint" />
            <mxPoint x="1330" y="1680" as="targetPoint" />
          </mxGeometry>
        </mxCell>
        <mxCell id="ZXUUVDFSicZSc3KfNEdH-110" value="TinkerLoadReporter" style="shape=umlLifeline;perimeter=lifelinePerimeter;container=1;collapsible=0;recursiveResize=0;rounded=0;shadow=0;strokeWidth=1;" vertex="1" parent="1">
          <mxGeometry x="1080" y="80" width="130" height="2140" as="geometry" />
        </mxCell>
        <mxCell id="ZXUUVDFSicZSc3KfNEdH-112" value="" style="html=1;points=[];perimeter=orthogonalPerimeter;" vertex="1" parent="ZXUUVDFSicZSc3KfNEdH-110">
          <mxGeometry x="60" y="175" width="10" height="1935" as="geometry" />
        </mxCell>
        <mxCell id="ZXUUVDFSicZSc3KfNEdH-116" value="onLoadSuccess" style="html=1;verticalAlign=bottom;endArrow=block;entryX=0;entryY=-0.003;entryDx=0;entryDy=0;entryPerimeter=0;" edge="1" parent="ZXUUVDFSicZSc3KfNEdH-110" target="ZXUUVDFSicZSc3KfNEdH-115">
          <mxGeometry width="80" relative="1" as="geometry">
            <mxPoint x="60" y="1760" as="sourcePoint" />
            <mxPoint x="140" y="1760" as="targetPoint" />
          </mxGeometry>
        </mxCell>
        <mxCell id="ZXUUVDFSicZSc3KfNEdH-115" value="加载成功" style="html=1;points=[];perimeter=orthogonalPerimeter;" vertex="1" parent="1">
          <mxGeometry x="1316" y="1840" width="10" height="130" as="geometry" />
        </mxCell>
      </root>
    </mxGraphModel>
  </diagram>
</mxfile>
